<?xml version="1.0" encoding="utf-8"?>
<!-- Generator: Adobe Illustrator 19.2.1, SVG Export Plug-In . SVG Version: 6.00 Build 0)  -->
<svg version="1.1" id="Layer_1" xmlns="http://www.w3.org/2000/svg" xmlns:xlink="http://www.w3.org/1999/xlink" x="0px" y="0px"
	 viewBox="0 0 800 600" style="enable-background:new 0 0 800 600;" xml:space="preserve">
<style type="text/css">
	.st0{fill:#03A9F4;}
	.st1{display:none;fill:#03A9F4;}
	.st2{display:none;fill:#03A9F4;stroke:#000000;stroke-width:15.5;stroke-miterlimit:10;}
</style>
<g>
	<g>
		<path class="st0" d="M525.5,323.3c8.8-4.7,13-12.6,15.1-21.6c1.2-5.3,1.6-10.8,1.8-16.2c0.3-7.2,0.2-14.3,0.3-21.5
			c0.1-7.2,1.5-9.7,5.6-9.9c4.5-0.2,9.9,4.8,9.9,9.8c-0.1,11.2-0.4,22.4-0.9,33.5c-0.8,16.3-1.8,32.5-2.8,49.9
			c5.4-0.5,9.9-0.8,14.2-1.4c22.1-2.8,44-6.2,65-14.2c6-2.3,8.1-5.6,8.3-11.2c0.1-3.1,0-6.2,0-9.4c-4.7-0.9-8.9-1.6-13.6-2.4
			c-7.4,7.6-16.1,12.2-27.5,6.3c-1.9,1.7-3.7,3.4-5.7,4.9c-7.8,5.6-16.6,4.8-23.2-2.2c-15.9-16.7-16.6-44.8-1.1-61.9
			c2.9-3.2,7.2-5.9,11.3-7.3c4.4-1.5,9.1-1,13.1-4.9c3.3-3.2,11.1,1.6,12.2,7.2c0.4,2.2,0.4,4.6,0.2,6.9
			c-0.8,12.6-1.7,25.1-2.4,37.7c-0.2,3,0.4,6.1,0.6,9.2c10.4-1.3,13.4-5.5,10.6-14.1c-5.2-16.2-4.4-31.7,6.3-45.7
			c4.9-6.3,10.6-11.2,19.6-10c1.3,0.2,3-1,4.3-1.9c6.5-4.5,14.2-1,14.8,6.9c0.3,5.1,0,10.3-0.1,15.5c0,3,0,6.1,0,9.3
			c6.6,0.1,6.7-3.8,7-7.6c0.8-12.8,6.8-22.9,16-31.3c6.2-5.8,14.2-7.1,20.5-3.7c10.9,5.8,13.3,12.2,6,22.1
			c-6,8.2-13.9,15.1-21.1,22.5c-1.8,1.8-4,3.2-5.8,4.7c3.4,11.2,9.4,14.2,18.5,8.3c4.8-3.1,8.6-8.2,11.9-13c2.4-3.4,3.7-6.3,8.5-3.8
			c5.4,2.9,6.4,4.7,3.9,10.2c-3.8,8.4-9.6,14.9-17.9,19c-10,5-20.6,3.1-28.3-4.9c-2.6-2.7-5-5.5-7.8-8.7c-2,0.6-4.1,1.2-6.2,1.8
			c-1.9,0.6-3.7,1.4-6.4,2.4c-0.6,6-1.4,12.2-1.7,18.4c-0.3,6.3-0.1,12.5-0.1,19.7c7.8-3.4,13.6-8.7,19.3-14.1
			c4.8-4.6,6.7-4.7,11.7-0.8c4.8,3.8,5.4,8.2,0.5,12c-6.7,5.3-13.8,10.3-21.3,14.4c-12.4,6.9-12.6,6.5-12.1,20.8
			c0,1.4,0.5,2.7,0.9,5.1c12.1-1.8,24-3.2,35.8-5.3c20.9-3.8,41.7-8.3,60.4-18.9c8.4-4.7,16-10.9,23.6-16.9c5.1-4,6-4.5,11.1-1.1
			c6,4,6.4,8.2,1,13.1c-9.2,8.4-20.2,14.1-31.5,18.9c-22.3,9.4-45.8,14.5-69.5,18.8c-10.7,2-21.4,3.6-32.7,5.5
			c-1.9,9.5-3.5,19-5.9,28.4c-3.8,14.9-9.3,28.9-20.9,39.8c-8.9,8.4-19.3,12-31.4,11.1c-11.3-0.8-22.7-11.6-26.7-24.9
			c-4.3-14.4,0.3-26.5,9.5-37.3c14.5-17,33.6-25.3,55.4-28c0.8-0.1,1.6-0.4,3.6-1c0.6-4.8,1.2-9.9,1.8-15.2
			c-29.1,5.9-57,11.6-85.8,17.4c-0.6,6.9-1.1,14.3-1.9,21.6c-1.9,16.8-6,32.8-19.5,44.5c-9.2,8.1-20,12.3-32.2,12.4
			c-14.9,0.2-28.2-12.4-31.2-28.1c-3.6-18.6,5.8-31.2,18.3-42.7c12.1-11.1,26.8-16.2,42.5-19.2c2.5-0.5,4.9-1,7.8-1.6
			c0-5.9,0-11.3,0-16.7c-0.4-0.1-1.1-0.6-1.4-0.4c-8.9,5.9-16.7,3.9-23.8-6.9c-3.9-5.9-5.9-12.4-5.5-19.5c0.2-3.7,0-7.4,0-12.2
			c-5.2,4-7.7,7.8-6.9,14c1.2,8.6-0.4,17.1-4.4,25c-8.5,16.9-25.3,19-38.5,5.5c-11.6-11.9-16.4-29.2-4.6-46c1.3-1.8,1.9-4.1,2.6-6.3
			c2.8-9.3,9.9-13.4,19.2-9.9c4.7,1.8,8.7,5.3,13.1,8c1.4,0.9,2.9,1.8,4.9,3.1c2.8-3.8,5.4-7.5,8.1-11c3-3.8,6-7.7,9.3-11.3
			c2.8-3.1,5.9-5.5,10.5-2.8c4.4,2.6,6.8,5.7,5.9,11.1c-1.7,10.2-3.2,20.4-4.6,30.6C521.2,313.2,521.7,316.8,525.5,323.3z
			 M538.2,364.7c-7.2,2.5-13.8,4.3-20.1,6.9c-13,5.5-23,14.8-30.7,26.6c-4.6,7.1-6,14.8-3.2,23c2.1,6,7.1,9.6,13.2,8.6
			c13.6-2.2,24.8-8.3,31.6-21C536.3,395.2,537,380.5,538.2,364.7z M637.2,377.1c-2.5,0-3.6-0.2-4.7,0c-15.6,3.4-28.5,11.5-39.2,23.2
			c-5.3,5.8-9.8,12.2-10.6,20.2c-1.5,15.3,6.5,23.5,21.5,18.5c7.4-2.5,13.1-7.2,17.4-13.4C631.4,411.4,634.8,394.9,637.2,377.1z
			 M644.7,244.7c-7.9,1.5-11,6.4-13.1,12.3c-4.6,12.6-2.9,25.3-0.1,37.9c1.2,5.2,6.1,6.1,9.3,1.8c1.4-1.9,2.1-4.7,2.3-7.1
			c1-12.8,1.8-25.6,2.5-38.4C645.8,249.2,645.1,247.3,644.7,244.7z M590.7,258.5c-8,1.7-11.2,5.2-13.6,14c-2.9,10.8-1.9,21.6,0,32.3
			c0.5,2.7,2.8,5.1,4.3,7.7c2.9-2,6.2-3.7,8.5-6.2c1.3-1.4,1.1-4.4,1.1-6.6c0.1-10.9,0.1-21.7,0-32.6
			C591.1,264.2,590.9,261.4,590.7,258.5z M487.1,315.9c-8.8-1.5-16.1-2.7-23.7-4c-2.2,4.4-1.4,9.6-0.2,15c1.1,4.5,2.6,8.2,7.7,8.9
			c5.1,0.7,9-1.8,11.1-6.2C484.3,325.2,485.6,320.3,487.1,315.9z M704.5,229.8c-10.2,0.4-18.3,10.8-18.2,22.6
			C694.5,246.3,701.9,240.5,704.5,229.8z M472.2,295.3c0,3.9,0.2,7.1,4.6,7.3c3.4,0.2,8.5-4,8.8-7.1c0.3-3.6-4.5-8.4-8.5-8.1
			C471.4,287.7,473.1,292.6,472.2,295.3z"/>
		<path class="st1" d="M146.6,353.2c3.4,3.1,6.3,5.9,9.4,8.4c17.5,14.5,20.2,43.2,2.1,62.1c-16.5,17.2-48,24.4-70.1,15.1
			c-13.6-5.7-22.9-15.7-24.4-30.7c-1.5-14.6,4.9-26.2,17-34.4c2.1-1.4,4.5-2.6,6.9-3.4c7.9-2.7,7.8-2.7,8.6-10.4
			c1.3-13.7,2.6-27.4,4-41c0.1-1.4,0.5-2.8,0.8-4.2c1.4-6.5,3.3-8.6,6.9-8c5,0.9,9.3,6,8.8,11c-1.2,11.7-2.6,23.3-3.9,35
			c-0.2,1.4-0.5,2.8-0.7,4.2c-1.6,9.1-1.7,17.5,8.5,22.1c1.2,0.5,2.1,1.9,3.1,3c2.2,2.5,2.6,5.7,0.2,7.7c-1.9,1.5-5.1,2.1-7.6,1.8
			c-2.2-0.3-4.2-2.4-7.1-4.2c-0.7,6-1.2,11.1-1.9,16.1c-0.9,6.7-2.9,9.4-6.7,9.2c-4-0.1-9-6.2-8.8-11.2c0.2-4.2,0.8-8.4,1.3-14.2
			c-9.6,5.4-13.4,12.5-14.1,21.5c-0.6,8.5,2.8,15.5,10.4,19.2c21.6,10.5,57.8,2,64.9-29.9c2.5-11.5-2.8-25.2-11.9-30
			c-3.6-1.9-8.1-3-12.2-3.2c-4.2-0.2-6.9-1.5-9-5.1c-3.2-5.5-3.1-6.9,2.2-10.3c11.6-7.5,16.3-18.7,13.9-32.3
			c-1.8-9.9-6.4-14.5-16.6-15.5c-9.5-0.9-18.2,1.6-25.8,7.4c-4.1,3.2-6.5,7.2-4.2,12.7c1.6,3.8,1.6,7.4-2.8,9.5
			c-4.5,2-6.9-1.1-9.1-4.2c-6.1-8.6-3.4-20.4,6.2-28c16.3-12.8,45.1-11.6,59.1,3.3c11.4,12.1,11.4,26.9,6.7,41.9
			C149.7,347.1,148.1,349.9,146.6,353.2z"/>
		<path class="st0" d="M290.9,350.5c1.2,0.3,2.9,0.6,5.1,1c5.3,0.9,7.4,0.8,8.6,2.4c0.6,0.8,0.8,1.7,0.6,4
			c-0.3,4.1-0.8,10.1-5.7,14.7c-2.9,2.8-6,3.7-8.9,4.6c-2.7,0.8-9.1,2.6-16.4,0.2c-3.7-1.2-7.2-3.5-10.4-6.8
			c-7.7-8.1-11.3-18-11.1-29c0.2-10.3,1.5-20.5,2.2-30.8c0.2-3,0-6,0-9.5c-6.1,0.4-9,4.1-10.4,8.3c-2.8,8.1-5.1,16.3-6.8,24.7
			c-1.4,6.7-1.5,13.7-2.2,20.5c-0.6,6.4-2.5,9.4-6.5,9.6c-3.9,0.1-9.2-4.9-9-9.9c0.3-8.3,1.6-16.5,2.4-24.8
			c0.4-4.7,0.7-9.4,1.2-16.1c-7,6.6-11.7,11.6-10.7,20.3c1.3,11-2.2,21-9.8,29.3c-8.3,9-21.8,9.6-30.9,1.3
			c-14.3-13.1-18.7-32.3-7.4-47.9c1.5-2,2.3-4.6,3.1-7c3.2-10,10.3-13.7,20-9.3c6.1,2.8,11.6,7.1,17.8,11c1.9-2.3,4.1-5,6.2-7.6
			c5-6,9.9-12.2,15-18.1c2.3-2.7,5.6-3.2,8.6-1.3c3,1.9,5.5,4.5,8.7,7.3c13.5-3.9,24,2.5,25.7,17.7c0.8,7.5-0.3,15.3-0.7,23
			c-0.4,7.4-1.2,14.8-1.4,22.3c-0.1,5.5,0.5,11.2,6.6,13.8c2.9,1.2,5.8,1.6,8.5,0.7c0.8-0.2,2.7-0.9,4.3-2.7
			c0.5-0.6,1.7-2.1,2.7-7.6C290.4,356.9,290.8,354,290.9,350.5z M175.2,335.9c-2.3,4.6-1.3,10.2,0.1,15.8c1.1,4.4,3.1,8.2,8.1,8.7
			c4.9,0.5,9.1-1.8,11.1-6.3c2-4.5,3.2-9.4,4.7-14.1C190.7,338.5,183.3,337.3,175.2,335.9z M185.6,310c-0.6,4.9-1.5,8.4-1.4,11.9
			c0,1.5,1.8,3.9,3.2,4.1c3.9,0.8,7.3-0.9,9.3-4.4c1.9-3.4,0-6.2-2.5-8.1C192.1,312.1,189.3,311.5,185.6,310z"/>
		<path class="st0" d="M413.9,353.5c3.3-5.2,7.2-10.1,9.9-15.6c9.3-18.5,11.8-38.3,7.8-58.5c-1.4-7.1-5.7-13.6-8.8-20.3
			c-1.3-2.7-3.1-5-0.4-7.7c2.9-2.8,6.3-2,8.5,0.2c3.4,3.4,6.8,7.1,8.6,11.4c8.6,19.8,7.4,40.3,2.4,60.7c-3,12-7.3,23.8-15.6,33.1
			c-5,5.7-11.2,10.6-17.7,14.5c-7,4.2-13.5,0-14.2-8.4c-0.2-2.5,0.1-5.2,0.4-7.7c2.6-18.4,1.6-36.6-2.5-54.6
			c-1.3-5.8-3.5-11.5-5.9-17c-2.9-6.5-8.6-8-15-4.7c-8.7,4.4-10.7,10.1-6.7,19.4c1.2,2.8,1.9,5.8-1.3,7.6c-2.8,1.5-5.2,0.6-7.5-2
			c-8.4-9.5-8.5-19.9,0.2-29.1c11.1-11.9,22.1-12.6,34.7-2.5c12.1,9.6,16.8,23.2,19,37.4c1.9,12.6,1.7,25.6,2.4,38.4
			c0.1,1.6,0,3.2,0,4.7C412.8,353,413.3,353.2,413.9,353.5z"/>
		<path class="st0" d="M722.5,172.2c-5.2,1.9-10.5,3.9-15.7,5.8c-4.1,1.5-6.4,3.6-3.4,7c-7.1,5.6-13.8,10.8-20.5,16.1
			c-0.4-0.4-0.9-0.7-1.3-1.1c4-5.4,8-10.7,13.3-17.7c-6.5,1.6-11.1,2.7-15.8,3.8c-1-1.2-2.3-2.9-3.7-4.5c6.4-1.5,13.2-3.2,21.1-5.1
			c-2.3-5.2-4-9.2-6.5-14.8c4.2,3,6.7,5.3,9.5,6.7c4.8,2.4,9.7,4.3,15.2,1c1.7-1.1,4.6-0.2,7-0.2C722,170.1,722.3,171.1,722.5,172.2
			z"/>
	</g>
</g>
<path class="st0" d="M225.7,276c-0.1-2.9,0-4.7,0-6.7c0,0,0-5.7-0.2-13.5c-0.3-9.9-1.7-32.6-1.5-35.9c0-0.1,0-0.2,0-0.2
	c0.1-0.7,0.3-2.4,1.2-4.2c0.2-0.4,2.1-4,4.2-4.1c2.9-0.1,5.5,6.6,6.2,8.5c5.2,13.9,7.7,56.5,8.6,73.8c-6.3-0.8-12.5-1.5-18.8-2.3
	c0.4-3.4,0.5-6.1,0.5-8C225.9,280.8,225.8,279.8,225.7,276z"/>
<g>
	<path class="st0" d="M135.5,338.3c4.2-2.8,8.3-5.5,12.4-8.2c2.3-1.5,5.7-3.7,9.8-6.3c5.4-3.3,8.3-5.1,8.3-5.1
		c6.7-4.1,10.3-6.1,12.8-10.5c0.3-0.6,0.9-1.5,0.9-2.8c0-1.5-0.8-3.3-2.1-3.7c-1.2-0.4-2.4,0.5-2.9,0.9c-5.7,4.1-11.7,7.6-17.5,11.5
		c-4.5,3.1-5.3,3-12.5,7.8c-1.4,0.9-4.5,3-5.8,3.9c-1.9,1.3-3.9,2.6-5.9,3.9c-0.4-1.4-0.7-2.3-1-3.3c-4.4-16.2-8.5-32.5-13.2-48.6
		c-2.3-7.9-5.2-15.6-8.4-23.1c-0.8-1.8-3.9-3.5-6-3.6c-1.2,0-3.2,3.2-3.7,5.2c-4.4,18.4-12.3,34.4-28.6,45.5
		c-15.3,10.4-32.7,15-49.9,20.6c-5.9,1.9-10,4.8-12.2,8.6c-0.8,1.4-4.5,6.8-2.1,11.2c1.1,2.1,3.1,3.1,4.3,3.6
		c1.1-0.4,2.5-1.1,3.3-2.5c0.3-0.6,0.4-1.1,0.4-1.4c0.1-5.4,2.1-9.1,7.2-10.9c4.6-1.6,9.3-3.1,14-4.5c21.5-6.4,42.1-14.8,56.2-33.2
		c5.8-7.6,9.6-16.8,14.3-25.4c6,22,12.1,44.5,17.6,64.8c-6.4,7.1-12,13.2-17.3,19.5c-12.7,15.1-21.5,31.5-14.3,52
		c4.8,13.8,18.1,23.2,30.5,22.1c10.8-0.9,20.6-11.1,21.6-26.4c0.8-11.9-1.8-24.1-3.7-36C140.6,355.5,137.8,347,135.5,338.3z
		 M137.1,401.9c-1.3,7.3-4.7,14.7-13.1,16c-8.1,1.3-14.4-3.3-19-9.7c-6.8-9.5-6.9-19.6-3-30.3c3.8-10.4,18.7-29.8,26.5-33.6
		C132.4,363.5,140.8,381.9,137.1,401.9z"/>
	<g>
		<path class="st0" d="M135,338.1l11.8-8.4c2-1.4,3.9-2.7,5.9-4c2-1.3,3.9-2.7,5.9-3.9l5.9-3.9c2-1.3,4-2.6,5.9-3.9
			c1.9-1.3,3.7-2.6,5-4.2c0.7-0.8,1.2-1.6,1.7-2.6c0.5-1,0.6-1.4,0.5-2c-0.1-0.3-0.2-0.7-0.3-0.9c-0.1-0.2-0.3-0.3-0.2-0.3
			c0,0,0,0,0,0l0,0c-0.1,0,0.2,0,0.1,0l-0.1,0l-0.1,0c0,0,0,0,0,0l0,0c0,0,0.1,0,0.1,0c0.1,0,0,0,0.1,0c0,0,0,0-0.1,0.1
			c-0.1,0-0.2,0.1-0.4,0.2c-0.2,0.1-0.3,0.2-0.6,0.4c-1.9,1.4-3.9,2.8-5.8,4.2l-5.9,3.9c-2,1.3-3.9,2.6-5.8,4
			c-2,1.4-4.2,2.7-6.1,3.9c-2,1.2-3.9,2.5-5.8,3.8l-11.6,8l-3.7,2.5l-1.4-4.3l-1.1-3.6l-1-3.5l-2-7l-4-14.1l-4-14.1l-2-7.1
			c-0.7-2.4-1.3-4.6-2.1-6.9c-1.5-4.5-3.2-9-5-13.5l-1.4-3.3l-0.4-0.8l-0.2-0.4c-0.1-0.2,0.1,0.3,0.1,0.2l0-0.1l-0.1-0.1l-0.1-0.1
			c0,0,0-0.1,0,0c0,0.1,0,0.1,0.1,0.2c0,0.1,0.1,0.1,0.1,0.1c0,0,0,0,0,0c0,0-0.1-0.1-0.2-0.2c-0.4-0.3-1.2-0.7-1.7-0.8
			c-0.1,0-0.2,0-0.3-0.1c0,0,0,0,0,0l0,0l0,0c-0.1,0,1.2-0.1,0.6,0l-0.1,0l-0.1,0c0,0-0.1,0,0.1,0c0.3,0,0.7-0.1,1-0.3l0.2-0.1
			l0.1-0.1c0.1-0.1,0.1-0.1,0.1-0.1c0,0,0,0,0.1,0l0,0c0,0-0.1,0.1-0.2,0.3c-0.4,0.5-0.9,1.4-1,2l-0.8,3.2c-0.3,1.2-0.7,2.5-1,3.7
			l-1.1,3.6c-1.6,4.8-3.6,9.6-6.1,14.2c-2.5,4.6-5.5,8.9-8.9,12.8c-3.5,3.9-7.4,7.4-11.7,10.4l-0.4,0.3l-0.2,0.1l-0.3,0.2l-0.8,0.5
			l-1.5,1c-1,0.7-2.2,1.4-3.3,2c-1.1,0.6-2.2,1.2-3.4,1.9l-3.4,1.7c-4.6,2.2-9.3,4.1-14,5.8c-4.7,1.7-9.4,3.2-14.1,4.7l-7,2.2
			l-3.4,1.1l-0.9,0.3c-0.3,0.1-0.5,0.2-0.7,0.3c-0.5,0.2-1,0.4-1.4,0.6c-1.9,0.8-3.6,1.9-4.9,3.1c-0.7,0.6-1.2,1.3-1.7,2
			c-0.2,0.3-0.6,1-0.9,1.4c-0.3,0.4-0.5,0.9-0.7,1.3c-0.4,0.9-0.7,1.7-0.9,2.4c-0.1,0.7-0.1,1.3,0,1.7c0.1,0.2,0.1,0.4,0.2,0.6
			c0,0,0.1,0.2,0.1,0.2l0,0c0,0,0,0,0.1,0.1c0.1,0.1,0.1,0.2,0.2,0.3c0.4,0.4,0.9,0.7,1.6,1l-3.1-0.1c0.4-0.1,0.6-0.3,0.7-0.3
			c0.1-0.1,0.1-0.1,0.1,0c0,0,0,0.1,0,0c0,0,0,0,0,0c0,0,0,0,0,0c0,0.1,0,0.1-0.1,0.4l0,0.2l0-0.2l0-0.1l0-0.3l0-0.5l0.1-0.7
			c0-0.5,0.1-0.9,0.2-1.3c0.3-1.7,0.8-3.6,1.7-5.3c1-1.7,2.4-3.3,4-4.4c1.6-1.1,3.3-1.9,4.8-2.4l3.9-1.2l7.7-2.5l2-0.6l1.9-0.6
			c1.3-0.4,2.6-0.8,3.8-1.2c1.3-0.4,2.5-0.8,3.8-1.2c1.3-0.4,2.5-0.8,3.7-1.3c1.2-0.4,2.5-0.9,3.7-1.4c1.2-0.5,2.5-1,3.7-1.5
			c1.2-0.5,2.4-1,3.6-1.6c1.2-0.5,2.4-1.1,3.5-1.7c1.2-0.6,2.3-1.2,3.4-1.8c1.1-0.6,2.3-1.3,3.4-2c1.1-0.7,2.2-1.3,3.2-2.1
			c1.1-0.7,2.1-1.4,3.1-2.2c1-0.8,2.1-1.5,3-2.4c1-0.8,2-1.6,2.9-2.5c1.9-1.7,3.6-3.6,5.3-5.5c0.8-1,1.7-2,2.4-3l0.6-0.8l0.5-0.7
			c0.3-0.5,0.7-1,1.1-1.6c1.4-2.1,2.7-4.4,3.9-6.7c2.5-4.6,4.8-9.6,7.6-14.4l4.7-8.5l2.5,9.3l17.1,64.9l0.5,1.8l-1.2,1.3l-9.4,10.3
			c-3.1,3.4-6.2,6.9-9.1,10.4l-1.1,1.3l-1,1.3c-0.7,0.9-1.4,1.8-2,2.7c-0.7,0.9-1.3,1.8-2,2.7c-0.6,0.9-1.3,1.9-1.8,2.8
			c-2.3,3.8-4.3,7.8-5.6,11.9c-1.3,4.2-1.9,8.5-1.8,12.8l0,1.6l0.2,1.6l0.2,1.6c0.1,0.5,0.2,1.1,0.3,1.6c0.2,1.1,0.4,2.1,0.8,3.2
			l0.5,1.6l0.2,0.8l0.3,0.7l0.6,1.6c0.2,0.5,0.4,0.9,0.7,1.4c0.4,0.9,1,1.9,1.5,2.8c1.2,1.8,2.4,3.6,3.9,5.1
			c2.9,3.2,6.5,5.7,10.5,7.4c2,0.8,4.1,1.3,6.2,1.7c1.1,0.1,2.1,0.2,3.2,0.1l0.8,0l0.2,0c0.1,0-0.1,0-0.1,0l0.1,0l0.1,0l0.4-0.1
			l0.9-0.1c0.3,0,0.6-0.1,0.8-0.1l1.4-0.3l1.5-0.5c1-0.4,1.9-0.8,2.8-1.4c1.8-1.1,3.5-2.4,5-4c2.9-3.2,5-7.1,6.2-11.4
			c0.6-2.1,0.9-4.3,1.2-6.5c0.2-2.4,0.2-4.5,0.2-6.9c-0.2-9.2-1.8-18.3-3.1-27.6c-0.6-4.6-1.6-9.1-2.7-13.6c-1.1-4.5-2.3-9-3.4-13.6
			L135,338.1z M136.1,338.5c1.2,4.4,2.6,8.7,3.8,13.1c1.3,4.5,2.5,9.1,3.3,13.7c1.7,9.1,3.6,18.3,4.1,27.8c0.1,2.3,0.1,4.8,0,7.1
			c-0.2,2.5-0.4,4.9-1,7.2c-1.1,4.8-3.4,9.3-6.7,13.1c-1.6,1.9-3.6,3.5-5.7,4.9c-1.1,0.7-2.2,1.2-3.4,1.8l-1.8,0.7l-2,0.5
			c-0.3,0.1-0.6,0.1-0.9,0.2l-0.9,0.1l-0.4,0.1l-0.1,0l-0.1,0l-0.2,0l-0.2,0l-1,0c-1.3,0.1-2.5,0-3.8-0.1c-2.5-0.3-5-0.9-7.3-1.8
			c-4.7-1.8-8.9-4.7-12.4-8.2c-1.8-1.8-3.3-3.8-4.7-5.8c-0.6-1.1-1.3-2.1-1.9-3.3c-0.3-0.6-0.6-1.2-0.8-1.7l-0.7-1.6l-0.4-0.9
			l-0.3-0.9l-0.6-1.8c-0.4-1.2-0.7-2.4-0.9-3.6c-0.1-0.6-0.3-1.2-0.4-1.8l-0.3-1.8l-0.3-1.8l-0.1-1.9c-0.3-5,0.4-10,1.8-14.7
			c1.4-4.8,3.5-9.2,5.9-13.4c0.6-1.1,1.3-2.1,1.9-3.1c0.6-1,1.3-2,2-3c0.7-1,1.4-2,2.1-2.9l1.1-1.4l1.1-1.4c3-3.7,6.1-7.2,9.2-10.7
			l9.2-10.5l-0.7,3.2l-18.1-64.7l7.2,0.9c-2.5,4.6-4.8,9.5-7.4,14.4c-1.3,2.5-2.7,4.9-4.2,7.3c-0.4,0.6-0.8,1.2-1.2,1.8l-0.6,0.9
			l-0.6,0.8c-0.9,1.2-1.8,2.2-2.7,3.4c-1.8,2.2-3.8,4.3-5.9,6.3c-1,1-2.1,1.9-3.2,2.9c-1.1,1-2.2,1.8-3.3,2.7
			c-1.1,0.9-2.3,1.7-3.4,2.5c-1.1,0.8-2.4,1.6-3.6,2.3c-1.2,0.8-2.4,1.5-3.6,2.2c-1.2,0.7-2.5,1.4-3.7,2c-1.2,0.7-2.5,1.3-3.8,1.9
			c-1.3,0.6-2.5,1.2-3.8,1.7c-1.3,0.6-2.6,1.1-3.9,1.6c-1.3,0.5-2.6,1-3.9,1.5c-1.3,0.5-2.6,1-3.9,1.4c-1.3,0.5-2.6,0.9-3.9,1.3
			c-1.3,0.4-2.6,0.9-3.9,1.2l-1.9,0.6l-1.8,0.6l-7.7,2.5l-3.9,1.3c-1.1,0.3-1.8,0.7-2.5,1.2c-0.6,0.4-1.1,1-1.4,1.6
			c-0.4,0.6-0.6,1.4-0.7,2.4c0,0.2-0.1,0.5-0.1,0.7l0,0.3l0,0.5l0,0.6c-0.1,0.7-0.2,1.1-0.3,1.4c-0.1,0.4-0.2,0.7-0.4,1
			c-0.1,0.1-0.1,0.3-0.2,0.5c0,0-0.1,0.3-0.2,0.4c-0.7,1.2-1.7,2.2-2.7,2.9c-1,0.7-2,1.1-2.9,1.5l-1.6,0.5l-1.5-0.6
			c-1.6-0.6-3.1-1.5-4.5-2.9c-0.3-0.3-0.7-0.7-1-1.1c-0.2-0.2-0.3-0.4-0.5-0.7l-0.2-0.4l-0.1-0.2c-0.5-0.9-0.9-1.8-1.1-2.8
			c-0.5-2-0.4-3.9-0.1-5.6c0.3-1.7,0.9-3.1,1.6-4.5c0.3-0.7,0.7-1.3,1-1.9c0.4-0.7,0.6-1,1.1-1.7c0.9-1.3,1.9-2.6,3-3.6
			c2.2-2.1,4.8-3.7,7.4-4.8c0.6-0.3,1.3-0.5,1.9-0.8l1-0.4l0.9-0.3l3.6-1.2l7-2.2c4.6-1.5,9.2-3,13.7-4.6c4.5-1.6,8.9-3.4,13.1-5.5
			l3.1-1.6l3.1-1.7c1-0.6,1.9-1.1,2.9-1.8l1.5-1l0.8-0.5l0.1-0.1c0,0,0.1-0.1,0,0l0,0l0.2-0.1l0.3-0.2c3.7-2.6,7.2-5.6,10.2-9
			c3-3.4,5.6-7.1,7.9-11.1c2.2-4,4.1-8.3,5.6-12.7l1.1-3.3c0.3-1.1,0.6-2.2,1-3.4l0.5-1.8l0.2-0.9l0.1-0.5c0.1-0.3,0.1-0.5,0.2-0.7
			c0.6-1.7,1.3-3,2.4-4.4c0.3-0.4,0.6-0.7,1-1.1l0.3-0.3l0.4-0.3c0.1-0.1,0.3-0.2,0.5-0.3l0.3-0.2l0.2-0.1c0.1,0,0.1,0,0.2-0.1
			c0.4-0.2,0.9-0.4,1.4-0.5l0.2,0l0.1,0l0.1,0c-0.5,0,0.8,0,0.7,0l0.1,0l0.2,0l0.4,0c0.5,0.1,1,0.2,1.5,0.3c1.8,0.5,3.3,1.3,4.8,2.5
			c0.4,0.3,0.7,0.6,1.1,1c0.2,0.2,0.4,0.4,0.5,0.6c0.1,0.1,0.2,0.3,0.3,0.4c0.1,0.2,0.2,0.4,0.3,0.5l0.1,0.2l0.1,0.1l0.2,0.4
			l0.2,0.4l0.4,0.9l1.4,3.5c1.8,4.6,3.5,9.3,5,14.1c0.7,2.4,1.5,4.9,2,7.2l1.9,7.1l3.7,14.2l3.6,14.2l1.8,7.1l0.9,3.6l1,3.4l-5-1.8
			l11.9-7.6c2-1.3,4.1-2.5,6.2-3.7c2.1-1.2,4.1-2.2,6-3.5c2-1.3,4-2.6,6-3.8l6-3.7c2-1.2,3.9-2.5,5.9-3.8c0.2-0.1,0.6-0.4,0.9-0.6
			c0.4-0.2,0.8-0.4,1.2-0.6c0.5-0.2,1-0.3,1.6-0.3c0.2,0,0.3,0,0.5,0l0.3,0c0.1,0,0.2,0,0.2,0l0.1,0l0.1,0c0,0,0.3,0.1,0.2,0.1
			l0.1,0c0.2,0.1,0.3,0.1,0.4,0.2c1.1,0.6,1.8,1.5,2.2,2.2c0.4,0.8,0.6,1.6,0.8,2.4c0,0.2,0.1,0.5,0.1,0.7l0,0.3l0,0.3
			c0,0.4-0.1,0.9-0.2,1.3c-0.2,0.8-0.6,1.6-1,2.1c-0.7,1.1-1.5,2.2-2.4,3.2c-1.8,2-4,3.3-6,4.6c-2,1.3-4.2,2.4-6.1,3.5l-6.1,3.5
			c-2.1,1.2-4.1,2.4-6.1,3.6l-6.1,3.6L136.1,338.5z"/>
		<path class="st0" d="M137.6,402c-0.5,2.5-1.1,5-2.1,7.3c-0.5,1.2-1.1,2.3-1.8,3.4c-0.7,1.1-1.6,2.1-2.5,3.1
			c-2,1.8-4.5,3.1-7.3,3.7c-0.6,0.1-1.2,0.3-1.9,0.3c-0.4,0-0.7,0.1-1.1,0.1l-1.1,0c-1.4,0-2.8-0.1-4.2-0.4
			c-2.8-0.6-5.4-1.9-7.8-3.6c-1.1-0.8-2.2-1.7-3.2-2.7c-0.5-0.5-1-1-1.5-1.5c-0.2-0.3-0.5-0.5-0.7-0.8l-0.3-0.4l-0.2-0.2l-0.2-0.3
			l-1.2-1.5c-0.4-0.6-0.8-1.2-1.2-1.8c-0.8-1.2-1.4-2.5-2-3.8c-1.1-2.6-1.9-5.5-2.2-8.4c-0.3-2.9-0.2-5.8,0.2-8.5
			c0.4-2.8,1.1-5.5,2-8l0.3-1l0.2-0.5l0.1-0.4l0.1-0.2l0.7-1.7c0.6-1.3,1.3-2.6,2-3.7c1.3-2.3,2.8-4.5,4.3-6.6
			c1.5-2.1,3.1-4.2,4.7-6.1c1.6-2,3.4-3.9,5.1-5.8c1.8-1.9,3.6-3.7,5.7-5.4c2-1.7,4.1-3.4,6.8-4.6l3.1-1.4l0.5,3.2l0.6,3.6l0.7,3.6
			c0.5,2.4,0.9,4.8,1.5,7.2l1.6,7.2l0.7,3.6c0.2,1.2,0.5,2.4,0.7,3.6l0.6,3.6l0.5,3.7l0.4,3.7l0.3,3.7l0.1,3.7l-0.1,3.7l-0.3,3.7
			L137.6,402L137.6,402z M136.6,401.8l0.5-3.6l0.3-3.6c0-1.2,0-2.4,0-3.6l-0.2-3.6c-0.1-1.2-0.3-2.4-0.4-3.6l-0.6-3.6l-0.7-3.6
			l-0.9-3.5c-0.3-1.2-0.6-2.3-1-3.5l-1.1-3.5l-2.2-7l-2.3-7l-1.1-3.6l-1-3.6l3.6,1.8c-1.7,1-3.4,2.7-5,4.4c-1.6,1.7-3.2,3.6-4.7,5.5
			c-1.5,1.9-2.9,3.9-4.3,5.9c-1.4,2-2.7,4-3.9,6.1c-1.2,2.1-2.4,4.1-3.5,6.2c-0.6,1.1-0.9,2-1.4,3l-0.7,1.7l-0.5,1.5
			c-0.7,2.2-1.2,4.4-1.5,6.5c-0.3,2.2-0.3,4.3-0.2,6.4c0.2,2.1,0.6,4.1,1.3,6.2c0.3,1,0.8,2,1.2,3l0.7,1.4l0.9,1.6l0.1,0.1l0,0.1
			c-0.1-0.2,0,0-0.1-0.1l0,0l0.1,0.2l0.2,0.4c0.2,0.2,0.3,0.5,0.4,0.7c0.3,0.5,0.6,0.9,0.9,1.4c0.6,0.9,1.4,1.7,2.1,2.6
			c1.5,1.6,3.2,3,5.1,3.8c1,0.5,2,0.8,3.1,1l0.8,0.1l0.8,0.1c0.5,0.1,1.2,0,1.8,0c0.5,0,1.1-0.1,1.6-0.2c0.5-0.1,1.1-0.2,1.6-0.4
			c1.1-0.3,2.1-0.9,3.1-1.5c1.9-1.3,3.4-3.3,4.5-5.5C135.5,406.6,136.1,404.2,136.6,401.8L136.6,401.8z"/>
	</g>
</g>
<path class="st2" d="M180.3,307.5c-10.7,6.4-21.4,12.8-32.1,19.3"/>
<path class="st0" d="M293.4,319.1c-0.5,7-1.1,12.7-1.6,16.5c-0.7,5.1-1.5,10.1-1.9,15.2c-0.3,3.2-0.4,6-0.5,9.6
	c-0.2,4.9,5.1,10,9,9.9c3.9-0.1,5.9-3.1,6.5-9.6c0.6-6.8,0.8-13.8,2.2-20.5c1.7-8.4,4-16.6,6.8-24.7c1.4-4.2,4.3-8,10.4-8.3
	c0,3.5,0.2,6.5,0,9.5c-0.7,10.3-2,20.5-2.2,30.8c-0.2,11,3.4,20.8,11.1,29c7.5,7.9,16.6,9.6,26.8,6.6c9.5-2.8,13.5-10.1,14.6-19.3
	c1.4-11.9-9.7-24.5-21.2-24.4c-6.6,0-8.4,3.5-5.7,9.5c2.3,5,6.2,6.3,11.4,6.2c3.6,7,2.5,12.5-2.3,17.2c-3.7,3.7-8.3,3.8-12.8,1.9
	c-6.1-2.6-6.7-8.2-6.6-13.8c0.2-7.4,1-14.8,1.4-22.3c0.4-7.7,1.5-15.5,0.7-23c-0.9-7.6-3.9-13-8.5-16c-6.4-4.2-14-2.4-17.2-1.7
	c-0.2,0-0.4,0.1-0.7,0.2c-2.4,0.6-11.1,3-15.9,10.8c-0.7,1.2-1.8,3.1-2.5,5.7"/>
<path class="st1" d="M289.6,349.2"/>
</svg>
